<svg width="44" height="36" viewBox="0 0 44 36" fill="none" xmlns="http://www.w3.org/2000/svg">
<path d="M0 36V30.4C0 29.3 0.283333 28.2667 0.85 27.3C1.41667 26.3333 2.2 25.6 3.2 25.1C4.9 24.2333 6.81667 23.5 8.95 22.9C11.0833 22.3 13.4333 22 16 22C18.5667 22 20.9167 22.3 23.05 22.9C25.1833 23.5 27.1 24.2333 28.8 25.1C29.8 25.6 30.5833 26.3333 31.15 27.3C31.7167 28.2667 32 29.3 32 30.4V36H0ZM4 32H28V30.4C28 30.0333 27.9083 29.7 27.725 29.4C27.5417 29.1 27.3 28.8667 27 28.7C25.8 28.1 24.2583 27.5 22.375 26.9C20.4917 26.3 18.3667 26 16 26C13.6333 26 11.5083 26.3 9.625 26.9C7.74167 27.5 6.2 28.1 5 28.7C4.7 28.8667 4.45833 29.1 4.275 29.4C4.09167 29.7 4 30.0333 4 30.4V32ZM16 20C13.8 20 11.9167 19.2167 10.35 17.65C8.78333 16.0833 8 14.2 8 12H7.5C7.2 12 6.95833 11.9083 6.775 11.725C6.59167 11.5417 6.5 11.3 6.5 11C6.5 10.7 6.59167 10.4583 6.775 10.275C6.95833 10.0917 7.2 10 7.5 10H8C8 8.5 8.36667 7.15 9.1 5.95C9.83333 4.75 10.8 3.8 12 3.1V5C12 5.3 12.0917 5.54167 12.275 5.725C12.4583 5.90833 12.7 6 13 6C13.3 6 13.5417 5.90833 13.725 5.725C13.9083 5.54167 14 5.3 14 5V2.3C14.3 2.2 14.6167 2.125 14.95 2.075C15.2833 2.025 15.6333 2 16 2C16.3667 2 16.7167 2.025 17.05 2.075C17.3833 2.125 17.7 2.2 18 2.3V5C18 5.3 18.0917 5.54167 18.275 5.725C18.4583 5.90833 18.7 6 19 6C19.3 6 19.5417 5.90833 19.725 5.725C19.9083 5.54167 20 5.3 20 5V3.1C21.2 3.8 22.1667 4.75 22.9 5.95C23.6333 7.15 24 8.5 24 10H24.5C24.8 10 25.0417 10.0917 25.225 10.275C25.4083 10.4583 25.5 10.7 25.5 11C25.5 11.3 25.4083 11.5417 25.225 11.725C25.0417 11.9083 24.8 12 24.5 12H24C24 14.2 23.2167 16.0833 21.65 17.65C20.0833 19.2167 18.2 20 16 20ZM16 16C17.1 16 18.0417 15.6083 18.825 14.825C19.6083 14.0417 20 13.1 20 12H12C12 13.1 12.3917 14.0417 13.175 14.825C13.9583 15.6083 14.9 16 16 16ZM31 24L30.7 22.5C30.5 22.4333 30.3083 22.3583 30.125 22.275C29.9417 22.1917 29.7667 22.0667 29.6 21.9L28.2 22.4L27.2 20.6L28.3 19.6C28.3 19.5 28.3 19.4 28.3 19.3C28.3 19.2 28.3 19.1 28.3 19C28.3 18.9 28.3 18.8 28.3 18.7C28.3 18.6 28.3 18.5 28.3 18.4L27.2 17.4L28.2 15.6L29.6 16.1C29.7333 15.9667 29.9 15.85 30.1 15.75C30.3 15.65 30.5 15.5667 30.7 15.5L31 14H33L33.3 15.5C33.5 15.5667 33.7 15.65 33.9 15.75C34.1 15.85 34.2667 15.9667 34.4 16.1L35.8 15.6L36.8 17.4L35.7 18.4C35.7 18.5 35.7 18.6 35.7 18.7C35.7 18.8 35.7 18.9 35.7 19C35.7 19.1 35.7 19.2 35.7 19.3C35.7 19.4 35.7 19.5 35.7 19.6L36.8 20.6L35.8 22.4L34.4 21.9C34.2333 22.0667 34.0583 22.1917 33.875 22.275C33.6917 22.3583 33.5 22.4333 33.3 22.5L33 24H31ZM32 20.5C32.4 20.5 32.75 20.35 33.05 20.05C33.35 19.75 33.5 19.4 33.5 19C33.5 18.6 33.35 18.25 33.05 17.95C32.75 17.65 32.4 17.5 32 17.5C31.6 17.5 31.25 17.65 30.95 17.95C30.65 18.25 30.5 18.6 30.5 19C30.5 19.4 30.65 19.75 30.95 20.05C31.25 20.35 31.6 20.5 32 20.5ZM35.6 14L35.2 11.9C34.9 11.8 34.625 11.675 34.375 11.525C34.125 11.375 33.9 11.2 33.7 11L31.6 11.7L30.2 9.3L31.9 7.8C31.8333 7.63333 31.8 7.5 31.8 7.4C31.8 7.3 31.8 7.16667 31.8 7C31.8 6.83333 31.8 6.7 31.8 6.6C31.8 6.5 31.8333 6.36667 31.9 6.2L30.2 4.7L31.6 2.3L33.7 3C33.9 2.8 34.125 2.625 34.375 2.475C34.625 2.325 34.9 2.2 35.2 2.1L35.6 0H38.4L38.8 2.1C39.1 2.2 39.375 2.325 39.625 2.475C39.875 2.625 40.1 2.8 40.3 3L42.4 2.3L43.8 4.7L42.1 6.2C42.1667 6.36667 42.2 6.5 42.2 6.6C42.2 6.7 42.2 6.83333 42.2 7C42.2 7.16667 42.2 7.3 42.2 7.4C42.2 7.5 42.1667 7.63333 42.1 7.8L43.8 9.3L42.4 11.7L40.3 11C40.1 11.2 39.875 11.375 39.625 11.525C39.375 11.675 39.1 11.8 38.8 11.9L38.4 14H35.6ZM37 9.5C37.7 9.5 38.2917 9.25833 38.775 8.775C39.2583 8.29167 39.5 7.7 39.5 7C39.5 6.3 39.2583 5.70833 38.775 5.225C38.2917 4.74167 37.7 4.5 37 4.5C36.3 4.5 35.7083 4.74167 35.225 5.225C34.7417 5.70833 34.5 6.3 34.5 7C34.5 7.7 34.7417 8.29167 35.225 8.775C35.7083 9.25833 36.3 9.5 37 9.5Z" fill="#F1F5F9"/>
</svg>
