<svg width="53" height="50" viewBox="0 0 53 50" fill="none" xmlns="http://www.w3.org/2000/svg">
<path d="M41.6875 17.5L38.9375 11.5L32.9375 8.75L38.9375 6L41.6875 0L44.4375 6L50.4375 8.75L44.4375 11.5L41.6875 17.5ZM46.6875 35L44.6875 30.75L40.4375 28.75L44.6875 26.75L46.6875 22.5L48.6875 26.75L52.9375 28.75L48.6875 30.75L46.6875 35ZM14.1875 50L13.4375 44.125C13.1458 44 12.8333 43.8333 12.5 43.625C12.1667 43.4167 11.8958 43.2083 11.6875 43L6.1875 45.375L0 34.5L4.6875 31C4.6875 30.6667 4.6875 30.3333 4.6875 30C4.6875 29.6667 4.6875 29.3333 4.6875 29L0 25.5L6.1875 14.625L11.6875 17C11.8958 16.7917 12.1667 16.5833 12.5 16.375C12.8333 16.1667 13.1458 16 13.4375 15.875L14.1875 10H26.6875L27.4375 15.875C27.7292 16 28.0417 16.1667 28.375 16.375C28.7083 16.5833 28.9792 16.7917 29.1875 17L34.6875 14.625L40.875 25.5L36.1875 29C36.1875 29.3333 36.1875 29.6667 36.1875 30C36.1875 30.3333 36.1875 30.6667 36.1875 31L40.875 34.5L34.6875 45.375L29.1875 43C28.9792 43.2083 28.7083 43.4167 28.375 43.625C28.0417 43.8333 27.7292 44 27.4375 44.125L26.6875 50H14.1875ZM20.4375 37.5C22.5208 37.5 24.2917 36.7708 25.75 35.3125C27.2083 33.8542 27.9375 32.0833 27.9375 30C27.9375 27.9167 27.2083 26.1458 25.75 24.6875C24.2917 23.2292 22.5208 22.5 20.4375 22.5C18.3542 22.5 16.5833 23.2292 15.125 24.6875C13.6667 26.1458 12.9375 27.9167 12.9375 30C12.9375 32.0833 13.6667 33.8542 15.125 35.3125C16.5833 36.7708 18.3542 37.5 20.4375 37.5ZM18.5625 45H22.3125L22.8125 40.5C24.0208 40.1667 25.0521 39.7396 25.9062 39.2188C26.7604 38.6979 27.6042 38 28.4375 37.125L32.5625 39L34.3125 35.875L30.6875 33.125C31.0208 32.1667 31.1875 31.125 31.1875 30C31.1875 28.875 31.0208 27.8333 30.6875 26.875L34.3125 24.125L32.5625 21L28.4375 22.875C27.6042 22 26.7604 21.3021 25.9062 20.7812C25.0521 20.2604 24.0208 19.8333 22.8125 19.5L22.3125 15H18.5625L18.0625 19.5C16.8542 19.8333 15.8229 20.2604 14.9688 20.7812C14.1146 21.3021 13.2708 22 12.4375 22.875L8.3125 21L6.5625 24.125L10.1875 26.875C9.85417 27.8333 9.67708 28.875 9.65625 30C9.63542 31.125 9.8125 32.1667 10.1875 33.125L6.5625 35.875L8.3125 39L12.4375 37.125C13.2708 38 14.1146 38.6979 14.9688 39.2188C15.8229 39.7396 16.8542 40.1667 18.0625 40.5L18.5625 45Z" fill="white"/>
</svg>
